<?xml version="1.0" encoding="utf-8"?><svg version="1.1" id="Layer_1" xmlns="http://www.w3.org/2000/svg" xmlns:xlink="http://www.w3.org/1999/xlink" x="0px" y="0px" viewBox="0 0 48.68 122.88" style="enable-background:new 0 0 48.68 122.88" xml:space="preserve"><style type="text/css">.st0{fill-rule:evenodd;clip-rule:evenodd;}</style><g><path class="st0" d="M0.12,52.05l11.63-24.49c4.17,0.72,8.36,1.02,12.55,0.96c4.33-0.06,8.66-0.5,12.97-1.24l11.28,24.76H0.12 L0.12,52.05z M0,57.99h48.68v64.89h-6.65v-55c0-2.1-1.72-3.82-3.82-3.82l0,0c-2.1,0-3.82,1.73-3.82,3.82v55h-6.23v-55 c0-2.1-1.72-3.82-3.82-3.82l0,0c-2.1,0-3.82,1.73-3.82,3.82v55h-6.23v-55c0-2.1-1.72-3.82-3.82-3.82l0,0 c-2.1,0-3.82,1.73-3.82,3.82v55H0V57.99L0,57.99z M15.7,19.24L24.84,0l8.64,18.95c-3.11,0.45-6.21,0.71-9.28,0.76 C21.36,19.75,18.53,19.6,15.7,19.24L15.7,19.24z"/></g></svg>